<?xml version="1.0" encoding="UTF-8"?>
<svg version="1.1" xmlns="http://www.w3.org/2000/svg" width="500" height="500">
<path d="M0 0 C0.99 0 1.98 0 3 0 C3 0.66 3 1.32 3 2 C3.5775 2.28875 4.155 2.5775 4.75 2.875 C6.83333333 3.91666667 8.91666667 4.95833333 11 6 C11 6.66 11 7.32 11 8 C12.32 8 13.64 8 15 8 C15 8.66 15 9.32 15 10 C15.70125 10.0825 16.4025 10.165 17.125 10.25 C22.76623794 11.72162729 26.90060352 15.11249017 30 20 C30.25 22.8125 30.25 22.8125 30 25 C24.00164161 28.95346348 17.98426892 30.48616831 11 32 C11.59167969 32.37511719 12.18335938 32.75023437 12.79296875 33.13671875 C24.42915691 40.67271663 24.42915691 40.67271663 25.8125 46.3125 C25.874375 47.199375 25.93625 48.08625 26 49 C25.43410156 49.40992188 24.86820312 49.81984375 24.28515625 50.2421875 C23.55167969 50.78101563 22.81820312 51.31984375 22.0625 51.875 C21.33160156 52.40867187 20.60070312 52.94234375 19.84765625 53.4921875 C17.88901765 54.88012104 17.88901765 54.88012104 17 57 C16.34 57 15.68 57 15 57 C14.34 58.65 13.68 60.3 13 62 C12.34 62 11.68 62 11 62 C10.71125 62.721875 10.4225 63.44375 10.125 64.1875 C9.08333333 66.79166667 8.04166667 69.39583333 7 72 C12.71239066 74.98721347 18.40947741 77.3984246 24.5 79.5 C25.37366211 79.80260742 26.24732422 80.10521484 27.14746094 80.41699219 C40.18152 84.84714778 53.46102451 87.62347771 67 90 C67.33 91.65 67.66 93.3 68 95 C61.61884041 98.43471861 55.23110518 99.71020321 48.1875 101.1875 C46.95451172 101.46013672 45.72152344 101.73277344 44.45117188 102.01367188 C26.8316725 105.767105 26.8316725 105.767105 19 101 C17.70974813 100.26833278 16.41805711 99.53919809 15.125 98.8125 C14.09375 98.214375 13.0625 97.61625 12 97 C12 96.34 12 95.68 12 95 C10.02 94.34 8.04 93.68 6 93 C6 92.34 6 91.68 6 91 C5.01 91 4.02 91 3 91 C3 90.34 3 89.68 3 89 C2.236875 88.71125 1.47375 88.4225 0.6875 88.125 C-2 87 -2 87 -5 85 C-5 84.34 -5 83.68 -5 83 C-6.98 83.66 -8.96 84.32 -11 85 C-11 85.66 -11 86.32 -11 87 C-11.99 87 -12.98 87 -14 87 C-14 87.66 -14 88.32 -14 89 C-28.57227767 96.71473524 -45.28262038 103.49898643 -62 100 C-62.33 98.35 -62.66 96.7 -63 95 C-62.23558594 94.8040625 -61.47117187 94.608125 -60.68359375 94.40625 C-48.23615878 90.93115384 -28.55482619 83.50383241 -21.67578125 71.734375 C-21.45277344 71.16203125 -21.22976562 70.5896875 -21 70 C-21.99 69.7215625 -21.99 69.7215625 -23 69.4375 C-27.31339218 67.37066625 -30.51456519 64.23462189 -34 61 C-34.78375 61.825 -35.5675 62.65 -36.375 63.5 C-39 66 -39 66 -41 66 C-41 66.66 -41 67.32 -41 68 C-41.66 68 -42.32 68 -43 68 C-43 68.66 -43 69.32 -43 70 C-44.46533203 71.35693359 -44.46533203 71.35693359 -46.5078125 72.8984375 C-47.24773437 73.46046875 -47.98765625 74.0225 -48.75 74.6015625 C-49.53375 75.18679688 -50.3175 75.77203125 -51.125 76.375 C-51.88554688 76.9525 -52.64609375 77.53 -53.4296875 78.125 C-55.60657099 79.76892236 -57.79689209 81.39143085 -60 83 C-60.59006836 83.43086914 -61.18013672 83.86173828 -61.78808594 84.30566406 C-64.44620448 86.17144301 -65.67103296 87 -69 87 C-69 87.66 -69 88.32 -69 89 C-75.55004254 91.69707634 -80.88486245 93.53699151 -88 93 C-88 91.68 -88 90.36 -88 89 C-85.68359375 86.94921875 -85.68359375 86.94921875 -82.4375 84.6875 C-76.78417006 80.59228682 -71.78675144 76.08249254 -66.875 71.125 C-66.23618896 70.48264404 -65.59737793 69.84028809 -64.93920898 69.1784668 C-62.52453083 66.71590276 -60.24573135 64.33296066 -58.1953125 61.5546875 C-57.80085938 61.04164063 -57.40640625 60.52859375 -57 60 C-56.34 60 -55.68 60 -55 60 C-55 59.01 -55 58.02 -55 57 C-54.34 57 -53.68 57 -53 57 C-52.34 55.68 -51.68 54.36 -51 53 C-50.34 53 -49.68 53 -49 53 C-48.79375 52.195625 -48.5875 51.39125 -48.375 50.5625 C-47.16142036 47.41822547 -46.01769544 45.53852927 -44.0625 42.875 C-40.41360949 37.65592677 -39.19279617 32.18370644 -38 26 C-36.68 25.67 -35.36 25.34 -34 25 C-34 24.34 -34 23.68 -34 23 C-34.99 22.67 -35.98 22.34 -37 22 C-41.29302091 16.50091301 -41.49506451 10.71087447 -41 4 C-37.66864109 4.59699131 -35.78724333 5.72012281 -33.25 7.9375 C-32.63640625 8.46214844 -32.0228125 8.98679688 -31.390625 9.52734375 C-30 11 -30 11 -30 13 C-29.4225 13.12375 -28.845 13.2475 -28.25 13.375 C-26 14 -26 14 -24.25 15 C-18.09514051 17.73549311 -11.05347441 17.02679338 -4.5 16.5625 C-3.67757812 16.51029297 -2.85515625 16.45808594 -2.0078125 16.40429688 C-0.00477101 16.27619538 1.99768871 16.13904939 4 16 C3.79503906 15.43152344 3.59007812 14.86304688 3.37890625 14.27734375 C1.70907331 9.4915546 0.53623064 5.04056799 0 0 Z M-23 31 C-22.34 33.64 -21.68 36.28 -21 39 C-12.43405811 38.81451701 -5.71643408 36.64948279 2 33 C-2.47192599 31.509358 -6.99834337 31.95944272 -11.6640625 32.0390625 C-15.59251023 32.08026999 -19.1612788 31.97879744 -23 31 Z M-16.0625 49.375 C-16.96033203 49.50132812 -17.85816406 49.62765625 -18.78320312 49.7578125 C-20.08354492 49.95117188 -20.08354492 49.95117188 -21.41015625 50.1484375 C-22.58783569 50.32125244 -22.58783569 50.32125244 -23.78930664 50.49755859 C-26.10343772 51.02350909 -27.92944436 51.85569121 -30 53 C-29.45472656 53.21914063 -28.90945312 53.43828125 -28.34765625 53.6640625 C-23.07689042 55.88048711 -18.50427845 58.51017902 -13.84765625 61.828125 C-12.08316858 63.17853471 -12.08316858 63.17853471 -10 63 C-8.24593866 60.92779224 -8.24593866 60.92779224 -6.5 58.3125 C-5.58734375 57.00732422 -5.58734375 57.00732422 -4.65625 55.67578125 C-3.10269515 53.1659108 -1.99834825 50.77041639 -1 48 C-6.13051504 47.91478493 -10.99977622 48.61577394 -16.0625 49.375 Z " fill="#FAFFFF" transform="translate(172,225)"/>
<path d="M0 0 C6.50305586 1.23867731 12.00218812 7.02061665 16.625 11.5 C18.07647903 14.40295805 17.99739025 16.27261779 17.625 19.5 C13.96061614 24.98944664 10.60616568 26.79596803 4.375 28.625 C3.59447266 28.87016357 2.81394531 29.11532715 2.00976562 29.36791992 C-4.94227209 31.49890096 -11.99297887 33.18637778 -19.09375 34.73828125 C-22.23587771 35.33320013 -22.23587771 35.33320013 -24.375 36.5 C-23.71113281 36.87511719 -23.04726562 37.25023437 -22.36328125 37.63671875 C-12.11082217 43.57865489 -12.11082217 43.57865489 -9.375 47.5 C-8.97637121 50.55083904 -9.10476176 53.44330521 -9.375 56.5 C-9.375 57.16 -9.375 57.82 -9.375 58.5 C-7.725 57.84 -6.075 57.18 -4.375 56.5 C-4.375 55.84 -4.375 55.18 -4.375 54.5 C-0.91346154 51.5 -0.91346154 51.5 1.625 51.5 C1.625 50.84 1.625 50.18 1.625 49.5 C2.285 49.5 2.945 49.5 3.625 49.5 C3.99625 48.7265625 3.99625 48.7265625 4.375 47.9375 C5.43753882 45.86554929 6.56948454 43.88020179 7.75 41.875 C9.78688098 38.85209113 9.78688098 38.85209113 9.625 36.5 C7.16173288 34.8553326 7.16173288 34.8553326 4.625 33.5 C5.625 30.5 5.625 30.5 7.4453125 29.33203125 C8.58613281 28.82736328 8.58613281 28.82736328 9.75 28.3125 C10.49507813 27.96832031 11.24015625 27.62414062 12.0078125 27.26953125 C15.44995414 26.25743886 18.04858406 26.10436144 21.625 26.5 C24.71484375 28.40625 24.71484375 28.40625 27.5625 31 C28.52027344 31.8353125 29.47804688 32.670625 30.46484375 33.53125 C33.37455254 37.53012645 33.04404022 39.65775742 32.625 44.5 C32.11525635 44.7673999 31.6055127 45.0347998 31.08032227 45.31030273 C28.78170784 46.5174623 26.48458995 47.72744223 24.1875 48.9375 C23.38505859 49.35837891 22.58261719 49.77925781 21.75585938 50.21289062 C20.99208984 50.61572266 20.22832031 51.01855469 19.44140625 51.43359375 C18.73443604 51.80540771 18.02746582 52.17722168 17.29907227 52.56030273 C15.64571254 53.38912401 15.64571254 53.38912401 14.625 54.5 C16.98000948 54.38482579 19.33349073 54.25812022 21.6875 54.125 C22.99847656 54.05539063 24.30945313 53.98578125 25.66015625 53.9140625 C30.43282132 53.41563639 34.73721902 52.49356893 39 50.25 C43.25778225 49.03349079 46.56033752 49.87038878 50.625 51.5 C57.22480976 55.33128334 62.8096926 59.26063811 65.625 66.5 C66.125 69.6875 66.125 69.6875 65.625 72.5 C62.60480135 76.33666383 59.96924767 77.21195208 55.25 78.125 C50.89925177 78.991074 46.8198585 80.05939728 42.625 81.5 C40.59041424 82.08759665 38.54851738 82.65048457 36.5 83.1875 C35.48679688 83.45949219 34.47359375 83.73148437 33.4296875 84.01171875 C30.69796335 84.48729747 29.20184997 84.41854222 26.625 83.5 C26.295 85.48 25.965 87.46 25.625 89.5 C24.965 89.5 24.305 89.5 23.625 89.5 C23.625 90.16 23.625 90.82 23.625 91.5 C19.46283725 91.82644414 17.26186538 91.90650982 13.6875 89.625 C11.625 87.5 11.625 87.5 11.625 85.5 C10.965 85.5 10.305 85.5 9.625 85.5 C9.625 84.84 9.625 84.18 9.625 83.5 C8.965 83.5 8.305 83.5 7.625 83.5 C5 81.125 5 81.125 2.625 78.5 C2.625 77.84 2.625 77.18 2.625 76.5 C1.965 76.5 1.305 76.5 0.625 76.5 C0.625 75.51 0.625 74.52 0.625 73.5 C5.28540115 71.16979943 12.15058288 71.72094208 17.01953125 73.25390625 C20.9495785 75.17008608 24.3305692 77.61737305 27.625 80.5 C28.615 78.52 29.605 76.54 30.625 74.5 C31.285 74.5 31.945 74.5 32.625 74.5 C32.769375 73.736875 32.91375 72.97375 33.0625 72.1875 C33.625 69.5 33.625 69.5 34.625 66.5 C16.55091285 67.94686392 -0.98061888 70.02219811 -18.71582031 73.92871094 C-22.52480684 74.74702057 -26.35293764 75.43890838 -30.1875 76.125 C-37.72484159 77.52109449 -45.10868655 79.33209669 -52.5 81.35546875 C-58.32069904 82.90522987 -63.34953665 83.84762289 -69.375 83.5 C-69.47296875 84.345625 -69.5709375 85.19125 -69.671875 86.0625 C-70.8018941 94.63505866 -72.41665565 100.66214787 -77.6875 107.5 C-81.10377094 110.04234116 -83.21390892 109.90795011 -87.375 109.5 C-87.375 108.84 -87.375 108.18 -87.375 107.5 C-88.365 107.17 -89.355 106.84 -90.375 106.5 C-92.92045975 101.88382894 -94.00704944 96.72531366 -93.08984375 91.53125 C-91.92290776 88.2153663 -89.90331931 85.5625243 -87.8671875 82.72265625 C-84.18264715 77.2344273 -82.90599726 70.84270294 -81.375 64.5 C-81.045 63.84 -80.715 63.18 -80.375 62.5 C-78.1875 62.5 -78.1875 62.5 -75.375 63.5 C-74.0065918 65.34765625 -74.0065918 65.34765625 -72.69921875 67.5625 C-72.26053467 68.29597656 -71.82185059 69.02945313 -71.36987305 69.78515625 C-71.04156494 70.35105469 -70.71325684 70.91695313 -70.375 71.5 C-69.47914185 71.29636841 -69.47914185 71.29636841 -68.56518555 71.08862305 C-55.88701156 68.22424546 -43.24687131 65.71198969 -30.39013672 63.80859375 C-26.03395279 63.14149701 -21.70328681 62.32675141 -17.375 61.5 C-18.73625 61.2215625 -18.73625 61.2215625 -20.125 60.9375 C-24.37435387 59.0579781 -25.75899134 56.67289347 -27.375 52.5 C-29.00572523 47.14590214 -30.375 42.11548012 -30.375 36.5 C-31.365 36.995 -31.365 36.995 -32.375 37.5 C-36.61999628 37.74484032 -40.87374361 37.68520945 -45.125 37.6875 C-46.30578125 37.69974609 -47.4865625 37.71199219 -48.703125 37.72460938 C-49.8478125 37.72654297 -50.9925 37.72847656 -52.171875 37.73046875 C-53.21698242 37.73457764 -54.26208984 37.73868652 -55.33886719 37.74291992 C-58.61842829 37.48052339 -61.30623935 36.65781184 -64.375 35.5 C-63.375 32.5 -63.375 32.5 -61.67602539 31.56445312 C-60.94891357 31.30599609 -60.22180176 31.04753906 -59.47265625 30.78125 C-58.66908691 30.49024414 -57.86551758 30.19923828 -57.03759766 29.89941406 C-56.17956543 29.60260742 -55.3215332 29.30580078 -54.4375 29 C-53.5717334 28.69030273 -52.7059668 28.38060547 -51.81396484 28.06152344 C-46.66930151 26.23871017 -41.49879578 24.59714681 -36.24609375 23.11328125 C-33.70269552 22.27964133 -31.60328912 20.96430428 -29.375 19.5 C-26.39142002 18.15028525 -24.67165696 17.5 -21.375 17.5 C-21.375 16.84 -21.375 16.18 -21.375 15.5 C-19.91962432 14.66151196 -18.46059627 13.82936066 -17 13 C-16.18789062 12.5359375 -15.37578125 12.071875 -14.5390625 11.59375 C-12.375 10.5 -12.375 10.5 -10.375 10.5 C-10.375 9.84 -10.375 9.18 -10.375 8.5 C-9.715 8.5 -9.055 8.5 -8.375 8.5 C-8.1275 7.9225 -7.88 7.345 -7.625 6.75 C-5.71318009 3.30872415 -3.97841289 0.83756061 0 0 Z " fill="#FAFFFF" transform="translate(174.375,140.5)"/>
<path d="M0 0 C4.7882254 1.96317242 8.1350383 4.29501808 11.53125 8.2734375 C12.294375 9.0365625 13.0575 9.7996875 13.84375 10.5859375 C16.28468263 14.47334872 16.03763466 16.71597558 15.53125 21.2734375 C14.15625 23.3359375 14.15625 23.3359375 12.53125 25.2734375 C10.68785897 30.53676571 10.22468494 35.19790851 10.23046875 40.74609375 C10.22509598 41.56543396 10.21972321 42.38477417 10.21418762 43.22894287 C10.2027423 45.93142859 10.20928118 48.63344864 10.21875 51.3359375 C10.21891113 52.27239105 10.21907227 53.2088446 10.21923828 54.17367554 C10.23698171 69.19428316 10.94822238 84.10757017 12.03125 99.0859375 C12.98198707 112.25837272 13.84643212 125.375324 13.90625 138.5859375 C13.91978516 139.76454346 13.93332031 140.94314941 13.94726562 142.1574707 C13.9112483 148.9022156 13.77548079 156.45711086 9.18554688 161.85644531 C6.33135115 164.38439517 3.2979932 166.61425744 -0.46875 167.2734375 C-6.00544725 164.81268316 -9.05597654 160.27582273 -12.63671875 155.515625 C-14.44744007 153.07578055 -14.44744007 153.07578055 -17.46875 151.2734375 C-17.46875 150.6134375 -17.46875 149.9534375 -17.46875 149.2734375 C-18.12875 149.2734375 -18.78875 149.2734375 -19.46875 149.2734375 C-21.16015625 147.6640625 -21.16015625 147.6640625 -23.03125 145.5234375 C-23.65128906 144.82734375 -24.27132813 144.13125 -24.91015625 143.4140625 C-26.45406094 141.29361195 -27.04771851 139.83423177 -27.46875 137.2734375 C-26.581875 137.4384375 -25.695 137.6034375 -24.78125 137.7734375 C-19.04642709 138.4383445 -13.24198957 138.2734375 -7.46875 138.2734375 C-7.46875 112.8634375 -7.46875 87.4534375 -7.46875 61.2734375 C-14.39875 62.5934375 -21.32875 63.9134375 -28.46875 65.2734375 C-31.93375 65.7684375 -31.93375 65.7684375 -35.46875 66.2734375 C-36.12875 67.2634375 -36.78875 68.2534375 -37.46875 69.2734375 C-40.34375 69.7734375 -40.34375 69.7734375 -43.46875 69.2734375 C-46.91982719 65.91822357 -49.25316199 62.13877127 -49.62008667 57.26205444 C-49.65039865 54.79802967 -49.61461554 52.34247821 -49.55859375 49.87890625 C-49.53816667 48.0175808 -49.51799231 46.15625255 -49.49804688 44.29492188 C-49.45464565 41.37870292 -49.40628214 38.46267324 -49.35229492 35.54663086 C-49.30372724 32.71989598 -49.27404543 29.89340953 -49.24609375 27.06640625 C-49.22433578 26.20468307 -49.20257782 25.3429599 -49.18016052 24.4551239 C-49.13328036 18.67310714 -50.252238 14.60624812 -52.46875 9.2734375 C-52.46875 8.2834375 -52.46875 7.2934375 -52.46875 6.2734375 C-48.69030854 5.50057447 -46.15354487 5.26849344 -42.46875 6.2734375 C-36.96893107 6.5373177 -32.20087304 5.75517869 -26.90625 4.4609375 C-26.17728516 4.29529297 -25.44832031 4.12964844 -24.69726562 3.95898438 C-3.62575509 -1.06707349 -3.62575509 -1.06707349 0 0 Z M-18.03125 15.2109375 C-19.02253906 15.38496094 -20.01382813 15.55898437 -21.03515625 15.73828125 C-23.40529752 16.03040533 -23.40529752 16.03040533 -24.46875 17.2734375 C-26.74858876 17.80435885 -29.04069084 18.23661721 -31.33984375 18.67578125 C-33.6620158 19.14025793 -33.6620158 19.14025793 -35.46875 21.2734375 C-35.49128443 23.72306927 -35.49128443 23.72306927 -35.09375 26.3984375 C-34.98289062 27.30851562 -34.87203125 28.21859375 -34.7578125 29.15625 C-34.66242188 29.85492188 -34.56703125 30.55359375 -34.46875 31.2734375 C-33.55379761 31.22014282 -33.55379761 31.22014282 -32.62036133 31.16577148 C-29.84098654 31.00759139 -27.06117204 30.85917561 -24.28125 30.7109375 C-23.32154297 30.65486328 -22.36183594 30.59878906 -21.37304688 30.54101562 C-19.97602539 30.46850586 -19.97602539 30.46850586 -18.55078125 30.39453125 C-17.69718018 30.3473999 -16.8435791 30.30026855 -15.96411133 30.25170898 C-13.34521242 30.27451321 -11.01471848 30.68130544 -8.46875 31.2734375 C-8.60975857 29.00229947 -8.75671755 26.73153025 -8.90625 24.4609375 C-8.98746094 23.19636719 -9.06867188 21.93179688 -9.15234375 20.62890625 C-9.34059547 17.28161857 -9.34059547 17.28161857 -10.46875 14.2734375 C-13.06543771 14.2734375 -15.47495685 14.75433755 -18.03125 15.2109375 Z M-18.55078125 41.1484375 C-19.48212891 41.32890625 -20.41347656 41.509375 -21.37304688 41.6953125 C-22.81260742 41.98148438 -22.81260742 41.98148438 -24.28125 42.2734375 C-25.26029297 42.46421875 -26.23933594 42.655 -27.24804688 42.8515625 C-29.65576336 43.32136084 -32.0623697 43.79684229 -34.46875 44.2734375 C-34.79875 47.2434375 -35.12875 50.2134375 -35.46875 53.2734375 C-29.5350864 52.67316494 -29.5350864 52.67316494 -23.65625 51.7109375 C-18.60935224 51.01822604 -13.55482025 51.19936852 -8.46875 51.2734375 C-8.46875 47.6434375 -8.46875 44.0134375 -8.46875 40.2734375 C-12.18813105 40.2734375 -14.98796654 40.44898921 -18.55078125 41.1484375 Z " fill="#FBFFFF" transform="translate(395.46875,164.7265625)"/>
<path d="M0 0 C2.59612557 3.98072587 2.32805881 7.25380018 1.875 11.875 C1.215 11.875 0.555 11.875 -0.125 11.875 C-1.29019056 15.58173703 -1.26664487 19.11689544 -1.30078125 22.984375 C-1.32398924 24.39324395 -1.34810697 25.80209815 -1.37304688 27.2109375 C-1.40803294 29.41383624 -1.43744611 31.61619417 -1.45092773 33.81933594 C-1.57880589 51.32880589 -1.57880589 51.32880589 -7.125 56.875 C-9.45797433 56.91592937 -11.79205225 56.91741723 -14.125 56.875 C-14.455 56.215 -14.785 55.555 -15.125 54.875 C-17.435 54.875 -19.745 54.875 -22.125 54.875 C-22.125 55.535 -22.125 56.195 -22.125 56.875 C-23.43405748 57.22160624 -24.74758402 57.55132837 -26.0625 57.875 C-27.15884766 58.1534375 -27.15884766 58.1534375 -28.27734375 58.4375 C-30.86490641 58.83504049 -33.19308891 58.91885551 -35.80297852 58.90234375 C-36.61259537 58.898396 -37.42221222 58.89444824 -38.25636292 58.89038086 C-38.87301315 58.88530518 -39.48966339 58.88022949 -40.125 58.875 C-40.39429812 64.76310337 -40.65968354 70.65136806 -40.92181396 76.53979492 C-41.01542446 78.63423328 -41.109863 80.7286348 -41.20513916 82.82299805 C-41.69950437 93.71802241 -42.16348436 104.60633399 -42.33984375 115.51171875 C-42.35468307 116.31946243 -42.3695224 117.12720612 -42.3848114 117.95942688 C-42.45311437 121.71782831 -42.50298761 125.47465695 -42.51928711 129.23364258 C-42.54067267 130.57244192 -42.56284171 131.91122907 -42.5859375 133.25 C-42.59826416 134.96316406 -42.59826416 134.96316406 -42.61083984 136.7109375 C-43.24431687 140.60925766 -44.6787952 142.80808272 -47.125 145.875 C-49.5625 147 -49.5625 147 -52.125 146.875 C-57.42013475 143.59705944 -60.23339734 139.0644574 -61.77734375 133.0703125 C-63.07020512 124.90640138 -62.06379225 116.87599459 -60.69921875 108.8046875 C-57.21478496 84.95883451 -57.05187116 60.56854763 -56.89483643 36.51147461 C-56.88173265 34.72855486 -56.863878 32.94566296 -56.84100342 31.1628418 C-56.65787258 18.23386528 -56.65787258 18.23386528 -60.125 5.875 C-59.76136364 1.51136364 -59.76136364 1.51136364 -58.125 -0.125 C-54.46155389 -0.26068319 -51.61884279 -0.28961426 -48.125 0.875 C-37.7440823 1.58527332 -28.44330323 0.63203295 -19.125 -4.125 C-12.25613461 -6.25107738 -5.75318999 -3.91216919 0 0 Z M-24.125 9.875 C-24.455 10.205 -24.785 10.535 -25.125 10.875 C-27.4702769 11.43450364 -29.82655796 11.94829579 -32.1875 12.4375 C-33.47785156 12.70691406 -34.76820313 12.97632813 -36.09765625 13.25390625 C-37.09667969 13.45886719 -38.09570312 13.66382813 -39.125 13.875 C-39.125 17.505 -39.125 21.135 -39.125 24.875 C-32.0558483 24.37006059 -25.83514249 23.14502693 -19.125 20.875 C-18.10812954 16.09737362 -18.10812954 16.09737362 -19.0625 11.4375 C-19.413125 10.921875 -19.76375 10.40625 -20.125 9.875 C-21.445 9.875 -22.765 9.875 -24.125 9.875 Z M-25.1875 33.3125 C-29.85536529 34.60438961 -34.30870462 35.42063251 -39.125 35.875 C-39.125 39.835 -39.125 43.795 -39.125 47.875 C-32.24731652 46.23373462 -25.67983011 44.52214293 -19.125 41.875 C-19.125 38.575 -19.125 35.275 -19.125 31.875 C-21.17005189 31.875 -23.24296037 32.75347829 -25.1875 33.3125 Z " fill="#FBFFFF" transform="translate(336.125,177.125)"/>
<path d="M0 0 C5.59061795 -0.5590618 9.42503106 0.9562835 14 4 C17.15608152 6.70738559 18.88486003 9.00212025 19.375 13.25 C19 16 19 16 18 18 C17.34 18 16.68 18 16 18 C16.02094727 19.06847168 16.04189453 20.13694336 16.06347656 21.23779297 C16.13649321 25.24465251 16.18202112 29.25145465 16.21972656 33.25878906 C16.23970285 34.98512702 16.26689372 36.71139853 16.30175781 38.4375 C16.68900727 58.11888431 16.68900727 58.11888431 12 65 C9.0625 66.8125 9.0625 66.8125 6 67 C3.1875 65.9375 3.1875 65.9375 1 64 C0.36328125 61.37890625 0.36328125 61.37890625 0 59 C-12.14965015 59.51051218 -12.14965015 59.51051218 -24 62 C-24.66 62.99 -25.32 63.98 -26 65 C-29.5797952 65.91399027 -31.46474216 66.17841928 -35 65 C-37 62 -37 62 -37 59 C-37.66 59 -38.32 59 -39 59 C-39.02705308 56.58325776 -39.04686438 54.1668206 -39.0625 51.75 C-39.07087891 51.06808594 -39.07925781 50.38617188 -39.08789062 49.68359375 C-39.11343013 44.4224563 -39.11343013 44.4224563 -38.50219727 42.14599609 C-37.85703458 39.38907825 -37.87021243 36.82309023 -37.8671875 33.9921875 C-37.86589844 32.84105469 -37.86460937 31.68992187 -37.86328125 30.50390625 C-37.86714844 29.30636719 -37.87101562 28.10882813 -37.875 26.875 C-37.87113281 25.66972656 -37.86726563 24.46445312 -37.86328125 23.22265625 C-37.86457031 22.07410156 -37.86585938 20.92554688 -37.8671875 19.7421875 C-37.86831543 18.6888623 -37.86944336 17.63553711 -37.87060547 16.55029297 C-37.82855219 14.00846501 -37.82855219 14.00846501 -39 12 C-39.125 8.4375 -39.125 8.4375 -39 5 C-38.67 4.67 -38.34 4.34 -38 4 C-35.95513848 4.14866204 -33.91377961 4.34585116 -31.875 4.5625 C-24.10557778 5.19266874 -14.1089955 5.55449775 -7 2 C-4.6670134 1.95977609 -2.33293334 1.95679753 0 2 C0 1.34 0 0.68 0 0 Z M-13.625 14.875 C-15.31496094 15.11863281 -15.31496094 15.11863281 -17.0390625 15.3671875 C-20.16777312 15.84567296 -20.16777312 15.84567296 -23 18 C-23.36297936 19.97747122 -23.36297936 19.97747122 -23.1875 22.125 C-23.125625 23.40375 -23.06375 24.6825 -23 26 C-21.81921875 25.97679687 -20.6384375 25.95359375 -19.421875 25.9296875 C-17.86458967 25.91092503 -16.30729748 25.89272534 -14.75 25.875 C-13.97269531 25.85824219 -13.19539063 25.84148437 -12.39453125 25.82421875 C-11.64042969 25.81777344 -10.88632812 25.81132812 -10.109375 25.8046875 C-9.41811523 25.79421387 -8.72685547 25.78374023 -8.01464844 25.77294922 C-6 26 -6 26 -2 28 C-2 23.38 -2 18.76 -2 14 C-6.06179769 14 -9.63261289 14.27843641 -13.625 14.875 Z M-9.44921875 35.875 C-10.29677734 36.05546875 -11.14433594 36.2359375 -12.01757812 36.421875 C-13.33918945 36.70804687 -13.33918945 36.70804687 -14.6875 37 C-16.02651367 37.28617187 -16.02651367 37.28617187 -17.39257812 37.578125 C-19.59563485 38.04936708 -21.79789542 38.52432842 -24 39 C-24 42.3 -24 45.6 -24 49 C-19.00842012 48.41275531 -14.03477296 47.73379359 -9.0625 47 C-7.37833984 46.7525 -7.37833984 46.7525 -5.66015625 46.5 C-3.08734623 46.27545224 -3.08734623 46.27545224 -2 45 C-1.92794489 43.31391034 -1.91613932 41.62499341 -1.9375 39.9375 C-1.94652344 39.01839844 -1.95554687 38.09929687 -1.96484375 37.15234375 C-1.97644531 36.44207031 -1.98804688 35.73179687 -2 35 C-4.70484432 35 -6.8235422 35.31109631 -9.44921875 35.875 Z " fill="#FAFFFF" transform="translate(352,240)"/>
<path d="M0 0 C2.3125 0.0625 2.3125 0.0625 5 1 C8.99365868 7.0593442 8.76102425 13.95843493 8 21 C6.16116062 27.88386024 3.04580555 34.96946297 -3 39 C-6.21009513 39.34149948 -8.33908499 39.28580109 -11.3125 38 C-13.32557991 35.61412751 -14.04478841 33.55238395 -14.296875 30.44140625 C-13.38626652 22.9528497 -8.14087532 16.09292469 -4.1015625 9.890625 C-2.2697531 6.74666843 -1.16688417 3.43923755 0 0 Z " fill="#F8FFFF" transform="translate(119,223)"/>
<path d="M0 0 C4.50247596 3.32325606 7.92773427 6.71496548 9.625 12.125 C9.625 15.2190221 9.54486267 16.51680359 7.625 18.9375 C2.68037459 22.05476384 2.68037459 22.05476384 -0.625 21.6875 C-1.89287979 21.14412295 -3.1412163 20.55439185 -4.375 19.9375 C-4.375 19.2775 -4.375 18.6175 -4.375 17.9375 C-4.97183594 17.68613281 -5.56867188 17.43476563 -6.18359375 17.17578125 C-11.16532222 14.36079386 -14.80624285 7.93230558 -17.375 2.9375 C-17.375 1.9475 -17.375 0.9575 -17.375 -0.0625 C-12.3969279 -2.55153605 -5.14098912 -1.61845954 0 0 Z " fill="#F9FFFF" transform="translate(123.375,185.0625)"/>
<path d="M0 0 C1.56210161 -0.05459773 3.12477089 -0.09306101 4.6875 -0.125 C5.55761719 -0.14820313 6.42773438 -0.17140625 7.32421875 -0.1953125 C10.26116945 0.01906346 12.28084868 0.9057074 15 2 C17.0959986 2.27876518 19.20262611 2.48588744 21.3125 2.625 C22.91544922 2.73714844 22.91544922 2.73714844 24.55078125 2.8515625 C25.35902344 2.90054688 26.16726562 2.94953125 27 3 C25.05008711 9.6474303 22.98171104 15.01828896 18 20 C13.82709333 20.56173744 11.61584083 20.35190905 7.9375 18.25 C3.64381735 14.2348265 0.99517806 8.44986381 -1 3 C-0.67 2.01 -0.34 1.02 0 0 Z " fill="#F8FFFF" transform="translate(142,218)"/>
<path d="M0 0 C0.66 0.33 1.32 0.66 2 1 C2 3.64 2 6.28 2 9 C0.23628182 10.03307771 -1.53625033 11.05112049 -3.3125 12.0625 C-4.29863281 12.63097656 -5.28476563 13.19945312 -6.30078125 13.78515625 C-9 15 -9 15 -12 14 C-9.48169253 10.87729874 -8.2738451 10.05476902 -4.25 9.25 C-2.64125 9.12625 -2.64125 9.12625 -1 9 C-0.67 6.03 -0.34 3.06 0 0 Z " fill="#E8FFFF" transform="translate(205,176)"/>
<path d="M0 0 C0.99 0.66 1.98 1.32 3 2 C-0.81489674 3.46726798 -3.29011622 2.43336419 -7 1 C-7.33 1.99 -7.66 2.98 -8 4 C-9.2065625 3.9690625 -9.2065625 3.9690625 -10.4375 3.9375 C-12.93354885 3.70366379 -12.93354885 3.70366379 -14 5 C-15.66617115 5.04063832 -17.33388095 5.042721 -19 5 C-12.62578234 0.75052156 -7.68452106 -1.0184305 0 0 Z " fill="#E7FFFF" transform="translate(393,164)"/>
<path d="M0 0 C3.60296594 -0.41176754 4.78402067 -0.1535853 7.8125 2 C8.534375 2.66 9.25625 3.32 10 4 C9.67 4.66 9.34 5.32 9 6 C7.02 4.68 5.04 3.36 3 2 C1.35 3.32 -0.3 4.64 -2 6 C-1.34 4.02 -0.68 2.04 0 0 Z " fill="#E6FFFF" transform="translate(134,284)"/>
<path d="M0 0 C3.67098495 1.93209734 5.34593412 3.21927799 7 7 C8.5412312 8.70921589 8.5412312 8.70921589 10 10 C4.98343041 8.5666944 2.98547118 6.09436048 0 2 C0 1.34 0 0.68 0 0 Z " fill="#E9FFFF" transform="translate(385,321)"/>
<path d="M0 0 C2.125 0.9375 2.125 0.9375 4 2 C-1.82254243 3.96818336 -6.83381819 5.40214229 -13 5 C-13 4.67 -13 4.34 -13 4 C-7.555 3.505 -7.555 3.505 -2 3 C-2 2.34 -2 1.68 -2 1 C-1.34 0.67 -0.68 0.34 0 0 Z " fill="#E8FFFF" transform="translate(136,320)"/>
<path d="M0 0 C0.33 0 0.66 0 1 0 C1.125 5.75 1.125 5.75 0 8 C-0.66 8 -1.32 8 -2 8 C-2.33 9.32 -2.66 10.64 -3 12 C-3.34833144 7.12335991 -2.41685712 4.22949995 0 0 Z " fill="#E9FFFF" transform="translate(370,250)"/>
<path d="M0 0 C0.66 0.33 1.32 0.66 2 1 C1.67 1.66 1.34 2.32 1 3 C3.97 3.495 3.97 3.495 7 4 C7 4.33 7 4.66 7 5 C4.36 5 1.72 5 -1 5 C-1 1 -1 1 0 0 Z " fill="#E8FFFF" transform="translate(85,313)"/>
<path d="M0 0 C0.99 0 1.98 0 3 0 C3 0.66 3 1.32 3 2 C3.66 2.33 4.32 2.66 5 3 C4.01 3 3.02 3 2 3 C2.33 4.65 2.66 6.3 3 8 C2.34 7.67 1.68 7.34 1 7 C0.59270772 4.67843403 0.25561323 2.3431213 0 0 Z " fill="#E6FFFF" transform="translate(172,225)"/>
</svg>
